<svg width="37" height="36" viewBox="0 0 37 36" fill="none" xmlns="http://www.w3.org/2000/svg">
<g id="Social Media Icon Square/Instagram">
<rect id="Social Media Icon" x="0.5" width="36" height="36" rx="8" fill="#FBFBFB"/>
<path id="Instagram" fill-rule="evenodd" clip-rule="evenodd" d="M9.5 18C9.5 14.4049 9.5 12.6073 10.3567 11.3126C10.7392 10.7344 11.2344 10.2392 11.8126 9.85669C13.1073 9 14.9049 9 18.5 9C22.0951 9 23.8927 9 25.1874 9.85669C25.7656 10.2392 26.2608 10.7344 26.6433 11.3126C27.5 12.6073 27.5 14.4049 27.5 18C27.5 21.5951 27.5 23.3927 26.6433 24.6874C26.2608 25.2656 25.7656 25.7608 25.1874 26.1433C23.8927 27 22.0951 27 18.5 27C14.9049 27 13.1073 27 11.8126 26.1433C11.2344 25.7608 10.7392 25.2656 10.3567 24.6874C9.5 23.3927 9.5 21.5951 9.5 18ZM23.5 18C23.5 20.7614 21.2614 23 18.5 23C15.7386 23 13.5 20.7614 13.5 18C13.5 15.2386 15.7386 13 18.5 13C21.2614 13 23.5 15.2386 23.5 18ZM18.5 21.3084C20.3272 21.3084 21.8084 19.8272 21.8084 18C21.8084 16.1728 20.3272 14.6916 18.5 14.6916C16.6728 14.6916 15.1916 16.1728 15.1916 18C15.1916 19.8272 16.6728 21.3084 18.5 21.3084ZM23.5 14C24.0523 14 24.5 13.5523 24.5 13C24.5 12.4477 24.0523 12 23.5 12C22.9477 12 22.5 12.4477 22.5 13C22.5 13.5523 22.9477 14 23.5 14Z" fill="#282828"/>
</g>
</svg>
