<svg width="37" height="36" viewBox="0 0 37 36" fill="none" xmlns="http://www.w3.org/2000/svg">
<g id="Social Media Icon Square/LinkedIn">
<g id="Group 73">
<rect id="Social Media Icon" x="0.5" width="36" height="36" rx="8" fill="#FBFBFB"/>
<path id="LinkedIn" d="M9.5 10.9747C9.5 10.4023 9.70271 9.93012 10.1081 9.55808C10.5135 9.18602 11.0405 9 11.6892 9C12.3263 9 12.8417 9.18315 13.2355 9.54949C13.6409 9.92727 13.8436 10.4195 13.8436 11.0263C13.8436 11.5758 13.6467 12.0337 13.2529 12.4C12.8475 12.7778 12.3147 12.9667 11.6544 12.9667H11.6371C11 12.9667 10.4846 12.7778 10.0907 12.4C9.69691 12.0222 9.5 11.5471 9.5 10.9747ZM9.72587 26V14.5293H13.583V26H9.72587ZM15.7201 26H19.5772V19.5949C19.5772 19.1943 19.6236 18.8852 19.7162 18.6677C19.8784 18.2784 20.1245 17.9493 20.4546 17.6803C20.7847 17.4113 21.1988 17.2768 21.6969 17.2768C22.9942 17.2768 23.6429 18.1411 23.6429 19.8697V26H27.5V19.4232C27.5 17.729 27.0946 16.4439 26.2838 15.5682C25.473 14.6924 24.4015 14.2545 23.0695 14.2545C21.5753 14.2545 20.4112 14.8899 19.5772 16.1606V16.1949H19.5598L19.5772 16.1606V14.5293H15.7201C15.7432 14.8956 15.7548 16.0347 15.7548 17.9465C15.7548 19.8582 15.7432 22.5427 15.7201 26Z" fill="#282828"/>
</g>
</g>
</svg>
