<svg width="24" height="24" viewBox="0 0 24 24" fill="none" xmlns="http://www.w3.org/2000/svg">
<path d="M19.2929 20.7071C19.6834 21.0976 20.3166 21.0976 20.7071 20.7071C21.0976 20.3166 21.0976 19.6834 20.7071 19.2929L19.2929 20.7071ZM16.1765 10.5882C16.1765 13.6745 13.6745 16.1765 10.5882 16.1765V18.1765C14.7791 18.1765 18.1765 14.7791 18.1765 10.5882H16.1765ZM10.5882 16.1765C7.50194 16.1765 5 13.6745 5 10.5882H3C3 14.7791 6.39737 18.1765 10.5882 18.1765V16.1765ZM5 10.5882C5 7.50194 7.50194 5 10.5882 5V3C6.39737 3 3 6.39737 3 10.5882H5ZM10.5882 5C13.6745 5 16.1765 7.50194 16.1765 10.5882H18.1765C18.1765 6.39737 14.7791 3 10.5882 3V5ZM14.587 16.0012L19.2929 20.7071L20.7071 19.2929L16.0012 14.587L14.587 16.0012Z" fill="#869298"/>
</svg>
